# xmcd
#
# Track frame offsets: 
#        150
#        27085
#        50927
#        70722
#        89529
#        116050
#        139050
#        153200
#        172440
#        185377
#        203757
#        214045
#        245147
#        268905
#        284897
#        300910
#
# Disc length: 4277 seconds
#
# Revision: 0
# Processed by: cddbd v1.5.2PL0 Copyright (c) Steve Scherf et al.
# Submitted via: ExactAudioCopy v0.99pb3
#
DISCID=fa10b310
DTITLE=Mr. Stress Blues Band - Killer Stress
DYEAR=1994
DGENRE=Blues
TTITLE0=Harp Gumbo
TTITLE1=Help Me
TTITLE2=Get Out Of My Life Woman
TTITLE3=Walkin' Blues
TTITLE4=Strokin'
TTITLE5=Personal Manager
TTITLE6=What'd I Say
TTITLE7=Mystery Train
TTITLE8=My Babe
TTITLE9=(I'm In A) Phone Booth
TTITLE10=Don't Start Me To Talkin'
TTITLE11=Lovin' Cup
TTITLE12=Crosscut Saw
TTITLE13=Lucile
TTITLE14=Further On Up The Road
TTITLE15=Satisfy Susie
EXTD=
EXTT0=
EXTT1=
EXTT2=
EXTT3=
EXTT4=
EXTT5=
EXTT6=
EXTT7=
EXTT8=
EXTT9=
EXTT10=
EXTT11=
EXTT12=
EXTT13=
EXTT14=
EXTT15=
PLAYORDER=
